<svg version="1.0" xmlns="http://www.w3.org/2000/svg" viewBox="0 0 497 212"><path d="M104.3 41c0 3 .2 4.3.4 2.7.2-1.5.2-3.9 0-5.5-.2-1.5-.4-.2-.4 2.8zm-21 15.7c-1.5.6-1.7 3.3-.3 3.3.6 0 1-.7 1-1.4 0-1.1 1.5-1.6 5.3-1.9l5.2-.3-5-.1c-2.7-.1-5.6.1-6.2.4zm22 1c.4.3-.1 1.6-1 2.7-1.8 2.1-1.8 2.1.5.2 2.4-2.1 2.9-3.6 1-3.6-.6 0-.8.3-.5.7zM97 60.5c.7.9 1.5 1.3 1.7 1.1.7-.7-.7-2.6-1.9-2.6-.6 0-.6.6.2 1.5zm6.5 4.5c1 1.1 2 2 2.3 2 .3 0-.3-.9-1.3-2s-2-2-2.3-2c-.3 0 .3.9 1.3 2zm34.8 3.7c.9.2 2.5.2 3.5 0 .9-.3.1-.5-1.8-.5-1.9 0-2.7.2-1.7.5zm-46 3c.9.2 2.3.2 3 0 .6-.3-.1-.5-1.8-.5-1.6 0-2.2.2-1.2.5zm71.3 3c-1.2 1.2-.6 3.3.9 3.3.8 0 1.5-.6 1.5-1.4 0-1.7-1.4-2.8-2.4-1.9zM167 76c0 1.6.7 2 3.5 2s3.5-.4 3.5-2-.7-2-3.5-2-3.5.4-3.5 2zm5.3.7c-.7.2-2.1.2-3 0-1-.3-.4-.5 1.2-.5 1.7 0 2.4.2 1.8.5zm3.3-1.2c-.9 2.5-.8 2.7 2.2 2.3 1.6-.2 2.7-.9 2.7-1.8 0-2.1-4.1-2.5-4.9-.5zm3.7 1.2c-.7.2-1.9.2-2.5 0-.7-.3-.2-.5 1.2-.5s1.9.2 1.3.5zm-83 4c.9.2 2.5.2 3.5 0 .9-.3.1-.5-1.8-.5-1.9 0-2.7.2-1.7.5zM77 85.8c0 .4.6 1.4 1.3 2.1 1 1.1.9 1.2-.3.6-1.3-.7-1.3-.6-.1.6 1 1 1.5 1.1 1.8.2.2-.7 1.2-.9 2.1-.6 1.5.4 1.5.3.2-.6-2.8-2.2-5-3.2-5-2.3zm134.5 1.3c-.9 1.4-.7 1.5 3.7 2.2 2.5.4 3.8.1 4.2-.8.2-.7.2-1.6-.1-1.9-1.1-1-7.1-.7-7.8.5zm10.2-.5c-1.3 1.3-.7 2.4 1.4 2.4 1.1 0 1.9-.5 1.7-1.2-.5-1.4-2.2-2.1-3.1-1.2zM79 93c.8.5 2.2.9 3 .9 1 0 .8-.3-.5-.9-2.7-1.2-4.3-1.2-2.5 0zm12.8.7c1.2.2 3.2.2 4.5 0 1.2-.2.2-.4-2.3-.4s-3.5.2-2.2.4zm69.4 9.3c0 1.9.2 2.7.5 1.7.2-.9.2-2.5 0-3.5-.3-.9-.5-.1-.5 1.8zm-23.4 1.7c.6.2 1.8.2 2.5 0 .6-.3.1-.5-1.3-.5-1.4 0-1.9.2-1.2.5zm10.5 3c2 .2 5.4.2 7.5 0 2-.2.3-.4-3.8-.4s-5.8.2-3.7.4zm-20.5 5c.6.2 1.8.2 2.5 0 .6-.3.1-.5-1.3-.5-1.4 0-1.9.2-1.2.5zm2.7 22.3c1 1.1 2 2 2.3 2 .3 0-.3-.9-1.3-2s-2-2-2.3-2c-.3 0 .3.9 1.3 2zm-71 11c1 1.1 2 2 2.3 2 .3 0-.3-.9-1.3-2s-2-2-2.3-2c-.3 0 .3.9 1.3 2z" fill="#666" stroke="#666"/><g fill="#333" stroke="#333"><path d="M76.5 24.4c-11.9 5.5-18.4 21.5-14.1 34.5 1.6 4.9 1.6 5-.9 8.7-1.4 2-2.9 5.3-3.5 7.3-1.2 4.5-1.3 9.4-.1 8.7.5-.4.7.3.4 1.4-.3 1.1-.1 2.6.5 3.3 1.2 1.4.4 10.7-.9 10.7-1.2 0-4.1 5.9-3.4 6.9.3.5.1 1.1-.5 1.3-2.8.9-4.6 22.8-1.9 22.8.5 0 .6.6.3 1.4-1.6 4.2 9.3 17.8 16.8 20.9 1.9.8 4.9 3.2 6.6 5.2l3.1 3.8.6-2.9c.3-1.6 1.1-3.7 1.6-4.8 1.7-3-.3-4.2-4.8-2.8-2 .6-4 .8-4.3.4-.3-.4-2.1-1.6-4-2.7-4.6-2.5-10-7.5-10-9.2 0-.7-.4-1.3-1-1.3-.5 0-1-.9-1-1.9 0-1.1-.4-2.2-.9-2.5-1-.6-1.4-3.9-1.3-11.1 0-4.9 4.6-17.4 5.9-16.1.4.3 1.2-.3 1.9-1.3 2.1-2.9 10.9-7.1 15-7.1 2.4 0 4.6.8 6.6 2.5 1.6 1.4 2.7 2.5 2.3 2.5-.3 0 1 2 2.9 4.4 2 2.3 3.6 4.8 3.6 5.5 0 .6.9 1.1 2 1.1 3.1 0 11.1-4.1 10.3-5.3-.4-.6-.1-.7.6-.3.7.5 2 .1 3.1-.9 1-.9 2.4-1.5 3.2-1.4.7.1 2.6-.4 4.1-1.1 4.2-2 6.2-.4 6.3 5.1 0 4.1-3 10.9-4.8 10.9-1.4 0-10 9.1-9.3 9.8.3.4 1.2 0 1.9-.8.6-.8 2.1-2.1 3.4-2.8 1.2-.6 3-1.7 4.1-2.4 1-.6 2.5-.9 3.4-.5 2 .7 6.8 7.1 7.1 9.4.2 1 .9 1.8 1.7 1.8.8.1 1.3.7 1.1 1.4-.1.7.2 1 .8.6.5-.3 1.3 0 1.6.9.9 2.4 5.6 5.1 9.7 5.5 1.1.1.9 3.9-.3 4.6-.6.3-1 .1-1-.4 0-1.4-2.7-1.4-3.5-.1-.7 1.2 2.9 6.7 6.2 9.3 1.3 1 2 2.4 1.6 3.3-.3.8.2 2.3 1.1 3.3 2.3 2.5 1.2 3-5 2.4-3-.3-5.4-.2-5.4.3s-1.5.9-3.4.9-3.2-.3-3-.7c.2-.4-.8-.5-2.3-.4-1.6.2-3.7-.3-4.8-1-1.1-.8-2.6-1.4-3.5-1.4-.8 0-3.2-.9-5.2-2-3.7-2-3.8-2-4.8 0-.6 1.1-1.6 1.7-2.5 1.4-.9-.4-1.5 0-1.5.7-.1 1.1-.4 1-1.3-.2-.7-.8-3.3-2.4-5.9-3.5-2.7-1-4.8-2.2-4.8-2.7 0-.4-.5-.7-1.1-.7-.5 0-2.6-1.1-4.6-2.5-3.6-2.4-6.7-2.4-4.1 0 2.2 2.2 22 12.2 26.7 13.6 2.5.7 5.6 2.4 6.9 3.6 3.3 3 7.5 2.9 13-.3 3.5-2.1 6.5-2.8 13.6-3.4 5-.4 10.5-1.3 12.1-2l3-1.3-4.3-.9c-5-1.1-5.1-2.7-.1-4.3l3.4-1.2-3.8-3.7c-2.1-2-4.3-3.6-4.8-3.6-2.2 0-.6-1.9 1.9-2.2 2.3-.3 1.7-.8-4.8-3.9-14-6.7-17.1-10-21.5-22.6l-1.9-5.3 2.4-2.5c1.7-1.8 3.4-2.5 6.1-2.5 4.1 0 5.9-1.9 5.9-5.9 0-1.6.6-2.1 2.5-2.1 1.4 0 2.8.7 3.1 1.5.5 1.2 2.5 1.5 9.5 1.5h8.9v-7h14.3c7.9 0 14.7-.3 15-.7.4-.3 0-1.4-.9-2.4s-1.3-2.2-1-2.7c.4-.6 12.5-1.1 30.3-1.1 22-.2 29.9-.5 30.5-1.4.5-.7.7-2.8.6-4.7l-.3-3.5-15.2-.3c-13.7-.2-15.3-.4-15.3-2-.1-1.6-.1-1.6-1 0-.9 1.4-3.2 1.6-16.9 1.7l-15.8.2-.7-3.2c-.3-1.7-.3-4.2 0-5.5 1.2-4.8-.6-5.4-16.6-5.4-11 0-15.7.4-18.4 1.5-3.3 1.4-3.7 1.4-4.3-.1-.4-1.2-1.7-1.5-5.7-1.3-2.8.2-6.7-.2-8.6-.8-7.4-2.4-10.7-2.5-12.7-.4-1.1 1.1-3.4 2-5.9 2.2-3.7.3-4.5-.1-7.4-3.4l-3.3-3.8 2.3-2.4 2.3-2.5H104c-2 0-2.2-.3-1.6-3.3.4-1.7 1-4.8 1.3-6.7.6-3.2.5-3.4-1.1-2.1-1.2 1-1.5 2.2-1 4.4s.3 2.8-.7 2.2c-.9-.6-1.1-.3-.6.8.3.9.2 1.9-.4 2.2-.5.4-.7 1.1-.4 1.6.4.5.2.9-.3.9s-.9 1.2-.8 2.7c.2 2.8 5.9 9.6 7.1 8.5.3-.4.3.1-.1 1.1-.3 1-.1 1.7.5 1.7.7 0 .9 1 .5 2.6-.5 2-.4 2.5.6 1.9.9-.5 1-.2.5 1.4-.4 1.3-.2 2.1.5 2.1.6 0 .8.4.5 1-.3.5-.1 1 .4 1 2.2 0 1 2.5-3.1 6.3-2.4 2.1-5.2 4.2-6.3 4.7-1.1.4-8.2.6-15.8.5-11.7-.2-14.1-.5-15.8-2.1-1.6-1.5-2.4-1.6-3.9-.6-1.5.9-2.1.9-2.6 0-.4-.7-.2-1.4.5-1.6.8-.3.9-1.5.5-3.9-.5-2.8-.4-3.4.6-2.8.9.5 1.1.4.6-.4-.6-.9-1.1-.9-2.1-.1s-1.4.4-1.7-2c-.2-1.6 0-3.4.6-4 .5-.5.6-1 .2-1-.5 0 .5-1.3 2.2-3 2.7-2.6 3.5-2.8 5.8-2 1.4.6 2.4.7 2.2.3C68 64.4 65.4 60 64.7 60c-.4 0-.5-.9-.2-2 .4-1.2.2-2-.6-2-.7 0-.9-1-.5-3 .3-1.7.1-4.1-.4-5.5-.8-2-.6-2.5.6-2.5 1.1 0 1.5-.6 1.1-2-.3-1-.1-2 .3-2.2.5-.2 1-1.2 1.2-2.3.1-1.1 2.7-4.4 5.6-7.3 5.1-5.2 8-6.2 9-3.3.3.9 0 1.1-.8.6-.9-.5-1-.2-.5 1.4.4 1.2.2 2.1-.4 2.1-.6 0-1.1 2-1.1 4.5s.5 4.5 1.1 4.5c.6 0 .8.9.4 2-.4 1.2-.2 2 .5 2s1 .7.6 1.5c-.3.8-.1 1.5.5 1.5s.9.7.6 1.5c-.4.8-.2 1.7.3 2 .6.4.7 1.7.4 3.1-.4 1.5-.2 2.4.6 2.4.6 0 .8-.5.4-1.2s-.3-.8.5-.4c1.3.9 4.1-1.6 4.1-3.8 0-.9-.7-1.3-1.9-1.1-1.5.3-2.2-.7-3.5-5.4-2-7.1-2-11.6-.1-17 .8-2.2 1.1-4.1.7-4.1-.4 0 0-.5.8-1 3.1-2-2.4-1-7.5 1.4zm46.5 48c0 2.5-1.2 4.6-2.5 4.6-1.4 0-2.7-3.8-1.9-5.2.9-1.4 4.4-.9 4.4.6zm5 .5c0 .5.9.7 2.1.4 1.6-.5 2-.2 1.7 1.3-.5 3.3-3.8 4.7-3.8 1.6-.1-1.6-.1-1.6-1.1 0-1.5 2.7-2.9 2.1-2.9-1.2 0-2.3.4-3 2-3 1.1 0 2 .4 2 .9zm38 3.7c0 .8-.7 1.4-1.5 1.4-1.5 0-2.1-2.1-.9-3.3 1-.9 2.4.2 2.4 1.9zm8-.6c0 1.6-.7 2-3.5 2s-3.5-.4-3.5-2 .7-2 3.5-2 3.5.4 3.5 2zm6.5 0c0 .9-1.1 1.6-2.7 1.8-3 .4-3.1.2-2.2-2.3.8-2 4.9-1.6 4.9.5zM117 79.4c0 2.2-2.9 4.1-4.2 2.8-.8-.8-.8-1.5.2-2.7 1.6-1.9 4-2 4-.1zm69.4 7.5c-.5.6-8.5 1.3-17.9 1.7-12.1.5-17.5 1.1-18.6 2-1.1 1-4.3 1.4-10.7 1.3-8-.1-9.2-.3-9.2-1.8 0-3.9 1.5-4.1 29.9-4.1 17.3 0 27.1.4 26.5.9zm32.9-.3c.3.3.3 1.2.1 1.9-.4.9-1.7 1.2-4.2.8-4.4-.7-4.6-.8-3.7-2.2.7-1.2 6.7-1.5 7.8-.5zm5.5 1.2c.2.7-.6 1.2-1.7 1.2-2.1 0-2.7-1.1-1.4-2.4.9-.9 2.6-.2 3.1 1.2zM60.7 95.7c-.3 1-.5.4-.5-1.2 0-1.7.2-2.4.5-1.8.2.7.2 2.1 0 3zm81.3-1.3c0 1.5-2.1 2.6-5.1 2.6-1.2 0-1.9-.7-1.9-2 0-1.6.7-2 3.5-2 2.3 0 3.5.5 3.5 1.4zm-17 7.3c0 2.8-.3 3.4-1 2.3-1.3-2-1.3-6 0-6 .6 0 1 1.7 1 3.7zm-23.6-1c2 1 3.4 2.2 3.2 2.8-.6 2-4.8 1.7-7.2-.6-4.4-4.1-2.2-5.3 4-2.2zm29.1 1.3c1.3 1.4 1.5 2.4.8 3.1-1.2 1.2-4.3-1.4-4.3-3.7 0-2 1.4-1.7 3.5.6zm22.1 52.4c1.5 1.2 1.7 1.7.6 2.8-1 1-1.7 1-3.9-.2-1.5-.8-2.8-2.1-3.1-2.8-.5-1.7 3.9-1.6 6.4.2zM120 166c0 .3 1.6 1.4 3.5 2.4 3.9 2.1 4.3 3.1 1.8 4-3.7 1.5-11.6-3.5-9.9-6.2.5-.9 4.6-1.1 4.6-.2z"/><path d="M99.7 25.7c-.9 1.8-4 5.9-6.7 9.3-2.9 3.4-4.8 6.5-4.4 7.2.4.6.3.8-.3.5-1-.6-2.3 2.2-2.3 5.2 0 1.1.3 1.1 1.5.1.9-.7 1.4-1.9 1.1-2.6-.3-.7-.2-1.4.2-1.6 1.6-.7 6.1-7.6 5.4-8.3-.4-.5-.2-.5.4-.2.7.4 1.8-.1 2.5-1 1.2-1.4 1.2-1.6-.1-.9-.8.4-.4-.1 1-1.3l2.5-2 .7 2.2c.3 1.2.7 1.7.8 1.2.1-.6.6.3 1 2l.8 3 .1-3c0-1.7-.5-5.3-1.2-8l-1.4-5-1.6 3.2zm-6.1 26.9c-.9 2-1.2 3.3-.6 2.9.5-.3 1 .2 1.1 1.2 0 1.1.3 1.3.6.5.2-.6.9-1 1.4-.6.5.3.9-1.1.9-3 0-4.8-1.3-5.2-3.4-1zm-20.7-1.4c-.6 6.6-.3 8.1 1.9 8.9 1.2.5 2.2 1.1 2.2 1.4 0 .4-.5.3-1.2-.1s-.8-.3-.4.4c2.7 4.4 3.6-3.5 1-8.6-1.6-3.3-3.3-4.2-3.5-2zm24 17.8c2.4 1.1 4.6 1.8 4.9 1.5.6-.6-6.1-3.5-8-3.5-.7 0 .7.9 3.1 2zm2.5 4.7c.4.7-.4 1.8-2.1 2.7-1.5.8-2.3 1.5-1.8 1.6.6 0 .3.5-.5 1-1.1.7-.1.9 3.3.8 4.3 0 6.2-1.1 3.6-2-.5-.2-1.1-1.1-1.3-2-.1-1-.6-2.1-1.1-2.5-.4-.4-.5-.3-.1.4zm-23.7 11c-.4.6.3 1.9 1.6 2.9 1.2 1.1 1.7 1.2 1.1.4-.6-.8-1.3-2.2-1.6-3-.3-.9-.7-1-1.1-.3zm120.9 15.1c-.3.6-.1 1.4.5 1.7 1.4.9 2 .2 1-1.4-.6-.8-1.1-.9-1.5-.3zM63 119.8c0 2.6 3 8.2 4.4 8.2.8 0 2.1.3 3 .6 2.7 1 1.8-1.2-1.1-2.7-1.4-.8-3.5-2.8-4.5-4.4-1-1.7-1.8-2.4-1.8-1.7zm14.1 12.9c-.1 1.7 1.6 2.5 2.5 1.2.4-.7.3-.9-.4-.5-.5.3-1.3 0-1.5-.6-.4-.9-.6-1-.6-.1zm5.3 3.5c-.2.4.4.7 1.3.7 1 .1 3.5.4 5.6.7 2.3.4 3.7.2 3.7-.4 0-.6.8-1.2 1.8-1.5.9-.2-1.4-.3-5.1-.3-3.8.1-7.1.4-7.3.8zm-17.3 3.9c-.1.9.7 2.3 1.7 3 1.5 1.2 1.6 1.2.6-.1-.6-.8-1.4-2.2-1.7-3-.5-1.3-.6-1.2-.6.1zm5.4 3.9c-1.9.8-1.9.9.3.9 1.2.1 2.2-.4 2.2-.9 0-.6-.1-1-.2-.9-.2 0-1.2.4-2.3.9zm55.8 11.8c1 1 1.7 2.6 1.7 3.4 0 2 2.7 3.1 3.6 1.6.5-.7.2-.8-.6-.3-1 .6-1.2.4-.7-.8.4-1 .1-1.7-.6-1.8-.7 0-.3-.4.8-.9 1.8-.8 1.6-1-1.4-1.4-.5 0-1.3-.4-1.7-.9-1.6-1.6-2.6-.6-1.1 1.1zm-39.2 12.3c-.1.9.9 2.4 2.2 3.5 2.2 1.9 2.2 1.9.6-.1-.9-1.1-1.9-2.7-2.2-3.5-.5-1.3-.6-1.3-.6.1z"/></g><path d="M62.7 47c.3 1.1.7 2 .9 2 .2 0 .4-.9.4-2s-.4-2-.9-2-.7.9-.4 2zm24 1.7c-.4.3-.7 1.1-.7 1.7 0 .6.5.5 1.2-.2.6-.6.9-1.4.7-1.7-.3-.3-.9-.2-1.2.2zM63.2 54c0 1.4.2 1.9.5 1.2.2-.6.2-1.8 0-2.5-.3-.6-.5-.1-.5 1.3zm31.4 3.5c-.3.8-.1 1.5.4 1.5.6 0 1-.7 1-1.5s-.2-1.5-.4-1.5-.6.7-1 1.5zM184.2 77c0 1.4.2 1.9.5 1.2.2-.6.2-1.8 0-2.5-.3-.6-.5-.1-.5 1.3zM62.4 82.5c-.3.8-.4 2-.2 2.7.3.7.7.1 1-1.5.6-2.9.1-3.6-.8-1.2zm11.6-1c0 .5.5 1.7 1 2.5s1 1 1 .5c0-.6-.5-1.7-1-2.5s-1-1.1-1-.5zm-13.8 13c0 1.6.2 2.2.5 1.2.2-.9.2-2.3 0-3-.3-.6-.5.1-.5 1.8z" stroke="#000"/><path d="M110.8 68.7c.6.2 1.8.2 2.5 0 .6-.3.1-.5-1.3-.5-1.4 0-1.9.2-1.2.5z" fill="#FFF" stroke="#FFF" fill-opacity=".02" stroke-opacity=".02"/><path d="M160.3 67.7c4.2.2 11.2.2 15.5 0 4.2-.1.7-.3-7.8-.3s-12 .2-7.7.3zm33.5 14c3.4.2 8.8.2 12 0 3.1-.2.3-.3-6.3-.3s-9.2.1-5.7.3zm35.5 0c3.7.2 9.6.2 13 0 3.4-.2.4-.3-6.8-.3-7.1 0-9.9.1-6.2.3z" fill="none"/><path d="M81.2 36c0 1.9.2 2.7.5 1.7.2-.9.2-2.5 0-3.5-.3-.9-.5-.1-.5 1.8zm20 5c0 1.9.2 2.7.5 1.7.2-.9.2-2.5 0-3.5-.3-.9-.5-.1-.5 1.8zM89 67c0 .6 1.1.8 2.8.4 3.9-1 4-1.4.4-1.4-1.8 0-3.2.5-3.2 1zm96.3 9.5c0 2.2.2 3 .4 1.7.2-1.2.2-3 0-4-.3-.9-.5.1-.4 2.3zm-16 .2c.9.2 2.3.2 3 0 .6-.3-.1-.5-1.8-.5-1.6 0-2.2.2-1.2.5zm7.5 0c.6.2 1.8.2 2.5 0 .6-.3.1-.5-1.3-.5-1.4 0-1.9.2-1.2.5zm-62.2 4.8c-1.1.8-1.5 1.5-.9 1.5s1.6-.7 2.3-1.5c1.6-1.9 1.1-1.9-1.4 0zM93 83.2c0 .4 1.4.8 3 .8 1.7 0 3-.2 3-.4s-1.3-.6-3-.8c-1.6-.3-3-.1-3 .4zm-12.3 4.5C79.4 88.9 80 90 82 90c1.1 0 2-.4 2-1 0-.5-.7-.6-1.7-.3-1.1.4-1.4.3-.9-.5.8-1.3.3-1.6-.7-.5zM85 90c0 .5.7 1 1.6 1 .8 0 1.2-.5.9-1-.3-.6-1-1-1.6-1-.5 0-.9.4-.9 1zm-.2 2.7c.6.2 1.8.2 2.5 0 .6-.3.1-.5-1.3-.5-1.4 0-1.9.2-1.2.5zm52.5 1c.9.2 2.3.2 3 0 .6-.3-.1-.5-1.8-.5-1.6 0-2.2.2-1.2.5z" fill="#999" stroke="#999"/><path d="M149.8 109.7c1.8.2 4.5.2 6 0s0-.4-3.3-.4-4.5.2-2.7.4z" fill="#FFF" stroke="#FFF" fill-opacity=".01" stroke-opacity=".01"/><path d="M77.3 36.5c0 2.2.2 3 .4 1.7.2-1.2.2-3 0-4-.3-.9-.5.1-.4 2.3zm16.1 2.7-1.9 2.3 2.3-1.9c2.1-1.8 2.7-2.6 1.9-2.6-.2 0-1.2 1-2.3 2.2zm-7.1 18.5c1.5.2 3.9.2 5.5 0 1.5-.2.2-.4-2.8-.4s-4.3.2-2.7.4zM93 70l-2.5.8 2.7.1c1.5.1 3-.4 3.3-.9.7-1.1 0-1.1-3.5 0zm9.4.5c-.4.8-1.1 1.2-1.7.8-.6-.3-.7-.1-.3.5 1.1 1.8 2.3 1.4 2.9-.8.6-2.3-.1-2.7-.9-.5zm-10.9 2.6c-1.1 1.6-.1 1.9 1.3.3.7-.8.8-1.4.3-1.4s-1.3.5-1.6 1.1zm.2 5.8c.6.7.9 2 .6 2.7-.3.8-.3 1.4 0 1.4 1.4 0 1.4-3-.1-4.1-1.4-1.1-1.5-1.1-.5 0zm3.4 3c-.9.6-.4 1 1.8 1.3 1.9.3 3.2 0 3.5-.9.6-1.5-3.1-1.8-5.3-.4zm-.3 2.8c.6.2 1.8.2 2.5 0 .6-.3.1-.5-1.3-.5-1.4 0-1.9.2-1.2.5zm-7.4 5.8c.2 1.7 1.1 2 6.2 2.1 5.3.1 5.4.1 1-.3-3.1-.3-5.4-1.1-6.2-2.1-1.2-1.6-1.2-1.5-1 .3zm-9 .6c-.5.8 4.6 2.2 5.4 1.4.3-.3-.3-.5-1.4-.5-1.6 0-1.6-.2-.4-1 1.1-.7 1-.9-.8-.7-1.3.1-2.5.4-2.8.8zm-6.1 1.6c.9.2 2.3.2 3 0 .6-.3-.1-.5-1.8-.5-1.6 0-2.2.2-1.2.5zm51.5 8.8c.2 1.4.6 2.5.8 2.5.2 0 .4-1.1.4-2.5s-.4-2.5-.9-2.5c-.4 0-.6 1.1-.3 2.5zM250.4 132c0 13.5.2 19 .3 12.2.2-6.7.2-17.7 0-24.5-.1-6.7-.3-1.2-.3 12.3zm47 0c0 13.5.2 19 .3 12.2.2-6.7.2-17.7 0-24.5-.1-6.7-.3-1.2-.3 12.3zm-162.9 28c.6 1 .4 1.2-.9.7-1-.4-1.5-.3-1.1.3.8 1.3 3.5 1.3 3.5.1 0-.6-.5-1.3-1.2-1.7-.7-.5-.8-.3-.3.6z" fill="#CCC" stroke="#CCC"/><g fill="#FFF" stroke="#FFF"><path d="M75.2 29.4C63.4 38.1 61.6 54.7 71 68c2.8 3.9 2.6 4.3-1.7 3.6-4.7-.8-6.1.1-7.8 5-1.4 4.2-1.2 5.5.7 3.6s4-1.5 3 .5c-.5 1-1.2 3.6-1.5 5.8-.6 3.8-.5 3.9.8 1.5l1.3-2.5 1 2.6c.6 1.5 1.8 2.9 2.7 3.3 2.6.9 8.3.7 9-.4.3-.6.2-1-.4-1-.5 0-1.9-1.5-3-3.4-2.2-3.4-2.9-9.6-1.1-9.6.6 0 1 .9 1 1.9 0 2.8 5.5 7.9 10.1 9.2 2.1.7 3.9 1.8 3.9 2.6 0 .9 1.6 1.3 5.6 1.3 4.6 0 6.2-.5 8.8-2.6 4.6-3.9 4.8-4.8 3-10.6-2.8-9.3-3.6-10.8-6.5-12.5-1.6-1-2.9-2.5-2.9-3.5 0-1.1-.7-1.8-2-1.8-1.1 0-2-.7-2-1.5 0-1.1-1.2-1.5-4.5-1.5-4.2 0-4.5.2-4.5 2.6 0 1.4-.4 2.3-1 1.9-.5-.3-1-1.6-1-2.9 0-2.4-4.9-21.8-5.7-22.6-.8-.8.7 7 2.4 12.2 1.2 4 1.3 5.7.2 10.4l-1.3 5.7-3.3-3.7c-1.8-2-3.7-3.6-4.3-3.6-1.3 0-3-7-2.4-9.9 1.6-7.3 8-18.3 9.4-16.1.5.7.9.1 1.3-1.7.3-1.5.4-2.9.3-3-.1-.2-1.7.8-3.4 2.1zm23.7 37.9c2.8 1.4 4.9 4.3 3.8 5.3-.3.4-1.4.1-2.3-.7-.9-.7-.5.4 1 2.5 2.9 4.3 3.3 6.6 1.1 6.6-.8 0-1.9.9-2.5 2-1.1 2-3.5 2.5-6.4 1.4-2.5-1-1.9-3.3.7-2.8l2.2.5-2.3-1.1c-2-.9-5.2-6.3-5.2-8.9 0-.6 1.5-1.5 3.3-2 2.3-.7 2.6-.9 1-1C90.4 69 88 68 88 66.9c0-1.3 8.1-1.1 10.9.4z"/><path d="M92 74.5c0 .8.2 1.5.4 1.5s.6-.7 1-1.5c.3-.8.1-1.5-.4-1.5-.6 0-1 .7-1 1.5zm3.2-36.8c-4.6 5.8-5.5 7.7-6.6 13.5-.6 3.1-.4 3.8.9 3.8.8 0 1.5-.9 1.5-2 0-3.1 3.6-11.8 6.5-15.6 4.4-5.7 2.3-5.4-2.3.3zM120 73.9c0 1.2.5 2.1 1 2.1.6 0 1-.6 1-1.4 0-.8-.4-1.8-1-2.1-.5-.3-1 .3-1 1.4zm4.7.6c-.4.8-.2 1.7.3 2 .6.4 1 .4 1 .1 0-.2.3-1.1.6-2 .3-.9.2-1.6-.4-1.6-.5 0-1.2.7-1.5 1.5zm4.3 1c0 .8.2 1.5.4 1.5s.6-.7 1-1.5c.3-.8.1-1.5-.4-1.5-.6 0-1 .7-1 1.5zM114 80c-.8.5-1.1 1.2-.7 1.6.4.4 1.3.2 1.9-.4.6-.6 1-1.4.7-1.6-.2-.3-1.1-.1-1.9.4zM82.3 91.7c.9.2 2.5.2 3.5 0 .9-.3.1-.5-1.8-.5-1.9 0-2.7.2-1.7.5zM136 95c0 1.2.8 1.2 3.5 0 1.8-.8 1.7-.9-.7-.9-1.6-.1-2.8.3-2.8.9zm-68 47c.8.5 2 1 2.5 1 .6 0 .3-.5-.5-1s-1.9-1-2.5-1c-.5 0-.3.5.5 1zm64 17.5c.7.8 1.7 1.5 2.2 1.5.6 0 .5-.7-.2-1.5s-1.7-1.5-2.2-1.5c-.6 0-.5.7.2 1.5z"/></g><path d="M76.2 42c0 1.4.2 1.9.5 1.2.2-.6.2-1.8 0-2.5-.3-.6-.5-.1-.5 1.3z" fill="#FCC" stroke="#FCC"/><path d="M173.2 111c0 1.9.2 2.7.5 1.7.2-.9.2-2.5 0-3.5-.3-.9-.5-.1-.5 1.8zm85.1 10.5c0 3.8.2 5.3.4 3.2.2-2 .2-5.2 0-7-.2-1.7-.4-.1-.4 3.8zm-85 11c0 2.2.2 3 .4 1.7.2-1.2.2-3 0-4-.3-.9-.5.1-.4 2.3zm85.1 14c0 5.5.1 7.6.3 4.7.2-2.9.2-7.4 0-10-.2-2.6-.3-.2-.3 5.3z" fill="#FC9" stroke="#FC9"/><path d="M99.8 37.7c.5 2.1.7 2.3 1 .9.2-1 0-2.2-.6-2.8-.6-.6-.7 0-.4 1.9z" fill="#F99" stroke="#F99"/><path d="M75.2 39c0 1.4.2 1.9.5 1.2.2-.6.2-1.8 0-2.5-.3-.6-.5-.1-.5 1.3z" fill="#F66" stroke="#F66"/><path d="M62.2 119.5c0 1.6.2 2.2.5 1.2.2-.9.2-2.3 0-3-.3-.6-.5.1-.5 1.8zm55.2-.3-1.9 2.3 2.3-1.9c2.1-1.8 2.7-2.6 1.9-2.6-.2 0-1.2 1-2.3 2.2zm-53.4.5c0 .6.9 2.1 2.1 3.4l2 2.4-1.7-3c-2.4-3.9-2.4-4-2.4-2.8zm7.6 9.2c-.3.5.2 1.5 1.2 2.2 1.5 1.2 1.6 1.2.5-.2-.7-.9-1-1.9-.6-2.2.3-.4.4-.7 0-.7-.3 0-.8.4-1.1.9zm3.8 2.5c.1.8.5 1.8.8 2.2.4.3.5-.1.4-1-.1-.8-.5-1.8-.8-2.2-.4-.3-.5.1-.4 1zm26.6 1.1c-.7.9-1 1.8-.7 2.1.3.3 1-.4 1.7-1.5 1.3-2.5.8-2.7-1-.6zm-4.9 2.6c-1.3.5-2.2 1.1-2 1.4.8.7 4.9-.7 4.9-1.6 0-.5-.1-.9-.2-.8-.2 0-1.4.5-2.7 1zM60 142.5c1.3 1.4 2.6 2.5 2.8 2.5.3 0-.5-1.1-1.8-2.5s-2.6-2.5-2.8-2.5c-.3 0 .5 1.1 1.8 2.5zm5.5.5c1 1.1 2 2 2.3 2 .3 0-.3-.9-1.3-2s-2-2-2.3-2c-.3 0 .3.9 1.3 2zm68.8 20.7c.9.2 2.5.2 3.5 0 .9-.3.1-.5-1.8-.5-1.9 0-2.7.2-1.7.5z" fill="#330" stroke="#330"/><path d="M72.6 38.2c-2.8 4.8-4.3 10.9-3.8 15 .3 2.9 2.2 4 2.2 1.3 0-1.8 2.1-6.5 3-6.5.3 0 1.6 1.7 2.8 3.7 2.5 4.4 2.9 2.9.6-2.5-.9-2-1.7-6.3-1.8-9.5 0-3.1-.2-5.7-.3-5.7-.1 0-1.3 1.9-2.7 4.2zm24.9 1c-2.3 3.8-3.4 6.1-4.5 10-1.1 3.7-.4 3.5 1.5-.2 1.8-3.5 3.5-3.1 3.6.8.1 2.2.3 1.9 1-1.3.6-2.2.9-5.9.7-8.3l-.3-4.4-2 3.4z" fill="#F33" stroke="#F33"/><path d="M175 87c0 .5 1 1 2.3 1 1.8 0 1.9-.2.7-1-1.9-1.3-3-1.3-3 0z" fill="#663" stroke="#663"/><path d="M140.8 169.7c1.2.2 3.2.2 4.5 0 1.2-.2.2-.4-2.3-.4s-3.5.2-2.2.4z" fill="#FFF" stroke="#FFF" fill-opacity=".08" stroke-opacity=".08"/><path d="M178 87c2 1.3 7.7 1.3 8.5 0 .4-.6-1.4-1-4.7-1-3.8 0-4.9.3-3.8 1zm-15.2 1.7c1.7.2 4.7.2 6.5 0 1.7-.2.3-.4-3.3-.4-3.6 0-5 .2-3.2.4zm-31.5 3c.9.2 2.5.2 3.5 0 .9-.3.1-.5-1.8-.5-1.9 0-2.7.2-1.7.5zm8.5 0c1.7.2 4.7.2 6.5 0 1.7-.2.3-.4-3.3-.4-3.6 0-5 .2-3.2.4z" fill="#633" stroke="#633"/><path d="M97.2 51c0 1.9.2 2.7.5 1.7.2-.9.2-2.5 0-3.5-.3-.9-.5-.1-.5 1.8z" fill="#933" stroke="#933"/><path d="M169.3 101.7c3.1.2 8.3.2 11.5 0 3.1-.2.5-.3-5.8-.3s-8.9.1-5.7.3z" fill="#FFF" stroke="#FFF" fill-opacity=".1" stroke-opacity=".1"/><path d="M95 99.7c0 .5 1 1.8 2.3 2.9l2.2 1.9-2-2.5c-1.1-1.4-2.1-2.7-2.2-2.9-.2-.2-.3 0-.3.6zm8 3.1c0 .6-.8 1.3-1.7 1.5-1.6.4-1.6.5-.1.6 1.8.1 3.4-1.6 2.4-2.6-.3-.4-.6-.1-.6.5zm13 1.6c0 .2 1.1.6 2.5.8 1.3.3 2.2.1 1.9-.3-.5-.9-4.4-1.3-4.4-.5zm-2 7.1c1.3 1.6 5.5 2 6.4.6.3-.4-.5-.6-1.8-.4-1.3.3-2.7 0-3-.6-.4-.6-1.2-1.1-1.8-1.1-.7 0-.6.6.2 1.5zm-46 13c1.3 1.4 2.6 2.5 2.8 2.5.3 0-.5-1.1-1.8-2.5s-2.6-2.5-2.8-2.5c-.3 0 .5 1.1 1.8 2.5zm63.3 42.2c.9.2 2.3.2 3 0 .6-.3-.1-.5-1.8-.5-1.6 0-2.2.2-1.2.5zM89.5 171c1 1.1 2 2 2.3 2 .3 0-.3-.9-1.3-2s-2-2-2.3-2c-.3 0 .3.9 1.3 2z" fill="#630" stroke="#630"/><path d="M144.5 62c.3.5 1.4 1 2.3 1 1.5 0 1.5-.2.2-1-2-1.3-3.3-1.3-2.5 0zm68.3 17.2c.6.6 1.9 1.3 2.7 1.4 1.3.2 1.4-.1.4-1.2-.6-.8-1.9-1.4-2.7-1.4-1.2 0-1.3.3-.4 1.2zM190 95c.8.5 1.1 1 .5 1-.5 0 .1.7 1.3 1.6 1.3.9 2.6 1.3 3 .9.8-.8-3.5-4.5-5.2-4.5-.6 0-.4.5.4 1zm-92.9 6.6c.6.7 1.5 1.1 2 .8.5-.3.9 0 .9.5 0 .6.8 1.1 1.8 1 1.4 0 1.3-.3-.7-1.7-3.2-2.2-5.7-2.6-4-.6zm30.9.3c0 .5.7 1.2 1.6 1.5 1.4.5 1.5.4.4-.9-1.4-1.7-2-1.9-2-.6zm-12.8 4.3c-2.6 2.6.1 6.5 3.8 5.3 2.5-.8 2.7-2.5.1-1.8-2.3.6-3.9-1.6-2-2.8 2-1.2 3.1-1.1 2.3.3-.4.7-.3.8.5.4.6-.4.9-1.2.6-1.7-.9-1.3-3.9-1.1-5.3.3zM136 131c2 1.3 3.3 1.3 2.5 0-.3-.6-1.4-1-2.3-1-1.5 0-1.5.2-.2 1zm13 24.5c1.4 1.7 3 2 3 .4 0-.5-.4-.7-1-.4-.5.3-1 .1-1-.4 0-.6-.5-1.1-1.1-1.1-.8 0-.8.5.1 1.5zm17.5 7.5c.3.5 1 1 1.6 1 .5 0 .9-.5.9-1 0-.6-.7-1-1.6-1-.8 0-1.2.4-.9 1zm-49.5 4.9c0 1.6 2.7 3.1 4.5 2.4 1.3-.4 1.6-.3 1.1.5s-.1 1 1 .5c1.3-.5 1-1-1.7-2.4-3.9-2.1-4.9-2.3-4.9-1zm-28 .9c0 1.6 2.8 3.4 3.4 2.3.4-.6-.3-1.5-1.4-2.1-1.1-.6-2-.7-2-.2z" fill="#C30" stroke="#C30"/><path d="M120.3 58.1c.9.6 1.5 1.4 1.2 2-.4.5-.1.9.4.9.6 0 1.1-.4 1.1-.8 0-1.2-2.2-3.2-3.4-3.2-.6 0-.3.5.7 1.1zm21.7 2.3c0 .2.6.9 1.3 1.5 1 .8 1.4.7 1.4-.4 0-.8-.6-1.5-1.4-1.5-.7 0-1.3.2-1.3.4zm73.8 18.8c1 1.3 1 1.7 0 2.1-.8.4-.7.6.5.6.9.1 1.7-.3 1.7-.8s-.8-1.5-1.7-2.2c-1.6-1.3-1.7-1.2-.5.3zM130 102.4c1.4 1.8 1.3 1.9-.3 1.3-1.1-.4-1.6-.3-1.2.3.8 1.2 3.5 1.3 3.5.1 0-.5-.8-1.5-1.7-2.2-1.7-1.3-1.7-1.3-.3.5zm8.3 29.1c0 .8.4 1.5.9 1.5.4 0 .8-.4.8-.9 0-.6-.4-1.2-.8-1.5-.5-.3-.9.1-.9.9zm8.7 22.2c0 .6.8 1.7 1.8 2.4 1.6 1.3 1.6 1.3.2-.6-.8-1.1-1.6-2.2-1.7-2.4-.2-.2-.3 0-.3.6zm18 8.2c0 .6.5 1.3 1.2 1.7.6.4.8.3.4-.4-.3-.5 0-1.3.6-1.5.8-.3.6-.6-.4-.6-1-.1-1.8.3-1.8.8zm-41 9.1c-1.3.8-1.2 1 .3 1 .9 0 1.7-.5 1.7-1 0-1.2-.1-1.2-2 0z" fill="#930" stroke="#930"/><path d="M119.2 107.4c.7.8 1.5 1.2 1.7 1.1.5-.6-1-2.5-2-2.5-.5 0-.4.6.3 1.4zm.2 62c1.1.9 2.4 1.6 3 1.6 1.2 0 .7-.5-2.4-1.9-2.4-1.1-2.4-1.1-.6.3z" fill="#F30" stroke="#F30"/><path d="M186.2 77c0 1.4.2 1.9.5 1.2.2-.6.2-1.8 0-2.5-.3-.6-.5-.1-.5 1.3z" fill="#FFF" stroke="#FFF" fill-opacity=".09" stroke-opacity=".09"/><path d="M160.8 68.7c3.9.2 10.5.2 14.5 0 3.9-.1.7-.3-7.3-.3s-11.2.2-7.2.3z" fill="#666" stroke="#666" fill-opacity=".2" stroke-opacity=".2"/><path d="M94 74.9c-1.2 2.4-1.3 3.4-.1 2.7.9-.6 2.2-4.6 1.5-4.6-.2 0-.8.9-1.4 1.9z" fill="#C00" stroke="#C00"/><path d="M195.3 82.7c2.6.2 6.8.2 9.5 0 2.6-.2.4-.3-4.8-.3s-7.4.1-4.7.3zm34 0c3.7.2 9.6.2 13 0 3.4-.2.4-.3-6.8-.3-7.1 0-9.9.1-6.2.3z" fill="#616161" stroke="#616161" fill-opacity=".2" stroke-opacity=".2"/><path d="M134.8 86.7c.6.2 1.8.2 2.5 0 .6-.3.1-.5-1.3-.5-1.4 0-1.9.2-1.2.5zm5.5 0c.9.2 2.3.2 3 0 .6-.3-.1-.5-1.8-.5-1.6 0-2.2.2-1.2.5zm10.6.5c.9 1.2 2.6 1.7 5 1.6l3.6-.1-3.5-.4c-1.9-.3-4.2-1-5-1.6-1.3-1-1.3-1-.1.5zm17.6-.2c-.4.6.8 1 2.9 1 2 0 3.6-.5 3.6-1 0-.6-1.3-1-2.9-1-1.7 0-3.3.4-3.6 1z" fill="#963" stroke="#963"/><path d="M155.8 86.7c1.7.2 4.7.2 6.5 0 1.7-.2.3-.4-3.3-.4-3.6 0-5 .2-3.2.4zM87.5 114c-.4.6.9 1 3.1 1 4.2 0 4.2-.4.2-1.4-1.5-.3-3-.2-3.3.4zm35.5 38.9c0 .6.4 1.2.8 1.5.5.3.9-.1.9-.9s-.4-1.5-.9-1.5c-.4 0-.8.4-.8.9z" fill="#960" stroke="#960"/><path d="M132.8 87.7c.6.2 1.8.2 2.5 0 .6-.3.1-.5-1.3-.5-1.4 0-1.9.2-1.2.5z" fill="#F60" stroke="#F60"/><path d="M137 90c.8.5 2.2.9 3 .9 1 0 .8-.3-.5-.9-2.7-1.2-4.3-1.2-2.5 0zm-5.2.7c.6.2 1.8.2 2.5 0 .6-.3.1-.5-1.3-.5-1.4 0-1.9.2-1.2.5zm14 0c.6.2 1.8.2 2.5 0 .6-.3.1-.5-1.3-.5-1.4 0-1.9.2-1.2.5z" fill="#C60" stroke="#C60"/><path d="M138.5 88.7c-.3.8.4 1.3 1.9 1.3 1.3 0 2.6-.6 2.9-1.3.3-.7-.4-1.2-1.9-1.2-1.3 0-2.6.6-2.9 1.2zm7-.8c-1.2 1.2-.3 2.2 1.7 1.9 2.8-.4 3.4-2.4.8-2.4-1.2 0-2.3.2-2.5.5zm-14 1.1c-.4.6.5 1 1.9 1s2.6-.5 2.6-1c0-.6-.9-1-1.9-1-1.1 0-2.3.4-2.6 1zM86 115.1c0 .5.9.9 2 .9s2-.2 2-.4-.9-.6-2-.9c-1.1-.3-2-.1-2 .4zm29.5 4.1-4 4.3 4.3-4c2.3-2.1 4.2-4 4.2-4.2 0-.8-.9 0-4.5 3.9zm-27.7 20.5c.6.2 1.8.2 2.5 0 .6-.3.1-.5-1.3-.5-1.4 0-1.9.2-1.2.5z" fill="#F90" stroke="#F90"/><path d="M158.8 87.7c1.7.2 4.7.2 6.5 0 1.7-.2.3-.4-3.3-.4-3.6 0-5 .2-3.2.4z" fill="#C63" stroke="#C63"/><path d="M208.8 93.7c6.7.2 17.7.2 24.5 0 6.7-.1 1.2-.3-12.3-.3s-19 .2-12.2.3z" fill="#9B9B9B" stroke="#9B9B9B" fill-opacity=".48" stroke-opacity=".48"/><path d="M210.3 94.7c6.4.2 17 .2 23.5 0 6.4-.1 1.1-.3-11.8-.3s-18.2.2-11.7.3z" fill="#FFF" stroke="#FFF" fill-opacity=".1" stroke-opacity=".1"/><path d="m64.4 104.2-1.9 2.3 2.3-1.9c2.1-1.8 2.7-2.6 1.9-2.6-.2 0-1.2 1-2.3 2.2zm28.7 11.5c-.2 2 1.6 2.4 3 .5 1.3-1.5 1.2-1.6-.3-.4-1.3 1-1.7 1-2.1 0-.4-.9-.6-.9-.6-.1zM68 123.5c1.3 1.4 2.6 2.5 2.8 2.5.3 0-.5-1.1-1.8-2.5s-2.6-2.5-2.8-2.5c-.3 0 .5 1.1 1.8 2.5zm41.4 1.7-1.9 2.3 2.3-1.9c2.1-1.8 2.7-2.6 1.9-2.6-.2 0-1.2 1-2.3 2.2zm7.2.7c-.4.5.3.7 1.4.4 2.3-.6 2.6-1.3.6-1.3-.8 0-1.7.4-2 .9zm-21.8 8.8c.6.2 1.8.2 2.5 0 .6-.3.1-.5-1.3-.5-1.4 0-1.9.2-1.2.5zm41.7 10.3c-1.6.7-1.7.9-.3.9.9.1 2-.4 2.3-.9.7-1.1.7-1.1-2 0zm3 11c1 1.1 2 2 2.3 2 .3 0-.3-.9-1.3-2s-2-2-2.3-2c-.3 0 .3.9 1.3 2zm-10.7 7.2c.5.5 1.6.8 2.3.6.8-.3.3-.7-1-1.1-1.7-.4-2.1-.3-1.3.5zm11.8.9c.2.4 1.3.7 2.4.6 2.3-.2 1.7-1-1-1.2-1-.1-1.7.2-1.4.6zm-9.6 1c-2.2.6-2 .7 1.3.8 3.8.1 4.7-.3 2.5-1.1-.7-.3-2.4-.1-3.8.3z" fill="#C90" stroke="#C90"/><path d="m113.4 122.2-2.9 3.3 3.3-2.9c3-2.8 3.7-3.6 2.9-3.6-.2 0-1.6 1.5-3.3 3.2zm-59.2 2.3c0 1.6.2 2.2.5 1.2.2-.9.2-2.3 0-3-.3-.6-.5.1-.5 1.8zm33.6 14.2c.6.2 1.8.2 2.5 0 .6-.3.1-.5-1.3-.5-1.4 0-1.9.2-1.2.5z" fill="#660" stroke="#660"/><path d="M72.2 100.9c-5.5 1.9-10.2 5.5-10.2 7.8 0 1.7-1.7 1.7-2.3 0-.6-1.7-4.7 11.9-4.7 15.7 0 5.4 2.9 13.4 6.2 17.1 3.5 4.1 5.1 4 1.9-.1-3.1-4-2.8-5.3 1.2-4.5 6 1.4 10.7 5.3 10.7 8.8 0 1.6-4.4 1.7-7.1.3-1-.6-1.9-.8-1.9-.6 0 .7 4.7 3.1 7.8 4 1.8.6 2.2.4 2.2-1.4v-2.2l3.3 2.1c7.9 5.2 22.5 13 25.5 13.6 2.8.6 3.2.4 3.2-1.4 0-2.6.9-2.6 5.9 0 4.4 2.3 13.5 4.9 16.6 4.8 1.7 0 1.8-.1.3-.7-1.8-.7-9.2-12.2-8.4-13 1-1 13.5 5.8 15.1 8.1.9 1.4 2.6 3.2 3.8 4 2.1 1.4 2.3 1.3 2.2-1.2 0-1.5-1.1-3.5-2.6-4.8-2.9-2.4-5.9-8-5.9-10.8 0-1.3.6-1.6 2.3-1.2 2 .5 2.1.5.3-.6-6.2-3.9-10.4-7.8-12.3-11.5-2.7-5.3-4.2-7.2-5.8-7.2-.7 0-5.1 2.4-9.8 5.3-10.3 6.5-18.9 9.3-24.4 7.8-2.1-.6-6-2.5-8.7-4.2-2.7-1.7-7.4-4.1-10.3-5.4-4.9-2.2-7-4.5-4.1-4.5.9 0 .9-.3 0-1.2-.7-.7-1.2-2.3-1.2-3.5 0-2.4 3.6-10.3 4.6-10.3.4 0 .3 2 0 4.4-.6 4-.4 4.8 2.4 8 4.7 5.3 18.9 14.4 16.5 10.6-.3-.6-.2-1 .4-1 .5 0 1.3.4 1.6 1 1 1.7 3.3 1.1 4-1 .3-1.1 1.1-2 1.6-2s.9.9.9 2c0 5.3 10.6-.7 22-12.4 5.3-5.5 5.4-5.6 2.7-5.6-2.1 0-3.2-.8-4.5-3-.9-1.6-2-3-2.4-3-1.1 0-13.1 7.2-15.5 9.4l-2.3 1.9v-2.2c0-2-.4-2.1-3.5-1.5-4 .7-4.6-.6-1.4-2.8 2.1-1.3 2-1.5-3.1-7.6-2.8-3.4-5.7-6.2-6.3-6.2-.7.1-3.6.9-6.5 1.9z" fill="#FC0" stroke="#FC0"/><path d="M169.3 100.7c3.1.2 8.3.2 11.5 0 3.1-.2.5-.3-5.8-.3s-8.9.1-5.7.3z" fill="#8D8D8D" stroke="#8D8D8D" fill-opacity=".48" stroke-opacity=".48"/><path d="M172.8 103.7c4.5.2 11.9.2 16.5 0 4.5-.1.8-.3-8.3-.3-9.1 0-12.8.2-8.2.3zm46.5 0c.9.2 2.3.2 3 0 .6-.3-.1-.5-1.8-.5-1.6 0-2.2.2-1.2.5zm36 0c3.1.2 8.3.2 11.5 0 3.1-.2.5-.3-5.8-.3s-8.9.1-5.7.3zm45 0c1.5.2 3.7.2 5 0 1.2-.2 0-.4-2.8-.4-2.7 0-3.8.2-2.2.4zm33 0c1.5.2 3.7.2 5 0 1.2-.2 0-.4-2.8-.4-2.7 0-3.8.2-2.2.4z" fill="#3DDFCE" stroke="#3DDFCE" fill-opacity=".25" stroke-opacity=".25"/><path d="M182.3 118.7c3.2.2 8.1.2 11 0 2.9-.2.3-.3-5.8-.3-6 0-8.4.1-5.2.3zm82 0c1.5.2 3.7.2 5 0 1.2-.2 0-.4-2.8-.4-2.7 0-3.8.2-2.2.4zm0 6c1.5.2 3.9.2 5.5 0 1.5-.2.2-.4-2.8-.4s-4.3.2-2.7.4zm65 24.3c0 4.1.2 5.8.4 3.7.2-2 .2-5.4 0-7.5-.2-2-.4-.3-.4 3.8zm-128 11.7c1.5.2 3.7.2 5 0 1.2-.2 0-.4-2.8-.4-2.7 0-3.8.2-2.2.4zm35 0c1.5.2 3.7.2 5 0 1.2-.2 0-.4-2.8-.4-2.7 0-3.8.2-2.2.4zm16 0c1.5.2 3.7.2 5 0 1.2-.2 0-.4-2.8-.4-2.7 0-3.8.2-2.2.4zm28 0c1.5.2 3.9.2 5.5 0 1.5-.2.2-.4-2.8-.4s-4.3.2-2.7.4zm18.5 0c1.2.2 3.2.2 4.5 0 1.2-.2.2-.4-2.3-.4s-3.5.2-2.2.4zm36 0c1.2.2 3.2.2 4.5 0 1.2-.2.2-.4-2.3-.4s-3.5.2-2.2.4z" fill="#42DECE" stroke="#42DECE" fill-opacity=".12" stroke-opacity=".12"/><path d="M181.3 139.7c2.6.2 6.7.2 9 0s.2-.3-4.8-.3c-4.9 0-6.8.1-4.2.3zm36 11c2 .2 5.4.2 7.5 0 2-.2.3-.4-3.8-.4s-5.8.2-3.7.4z" fill="#40DFCF" stroke="#40DFCF" fill-opacity=".37" stroke-opacity=".37"/><g fill="#3FC" stroke="#3FC"><path d="M365.4 104.2c-10.2 1.8-16.3 10.3-14.8 20.4 1.2 7.9 6.7 12.3 17.7 13.9 2.6.4 5.7 1.5 6.9 2.4 1.9 1.6 1.9 1.8.3 3.4-2.3 2.4-10.5 2.2-15.5-.3-2.2-1.1-4.6-2-5.3-2-1.9 0-6.9 7.6-6.5 9.8.2.9 3 3 6.2 4.7 5.4 2.7 6.9 3 15.1 3 8.3 0 9.5-.3 13.3-2.7 5.2-3.5 7.5-7.8 7.5-14.3 0-9.8-4.2-14.1-16.7-17.1-3.9-.9-7.8-2.3-8.6-3-4.1-3.9 8-6.6 13.5-3 1.4.9 3.5 1.6 4.7 1.4 2.2-.3 7-8.2 6.2-10.2-.6-1.5-7.8-5.2-11.6-6-5.9-1.2-7.5-1.3-12.4-.4zm13.5 2.9c2.1.6 4.8 1.9 6 2.8 2.2 1.7 2.3 1.9.7 4.9-2.1 4.1-3.1 4.6-5.8 2.8-6.3-4.1-17.8-2.3-17.8 2.8 0 3.2 2.7 5 11 7.1 3.5.9 7.7 2.3 9.2 3.1 8.2 4.2 7.7 19.2-.8 24.5-3.3 2-5.2 2.4-12.4 2.4-6.9 0-9.3-.4-12.8-2.3-4.8-2.6-5.8-4.2-4.3-6.9 2.6-4.6 2.6-4.6 7.1-2.3 8.4 4.3 20 2.2 20-3.5 0-2.9-3.4-4.9-10-6-11.4-1.8-16-6.2-16-15.3 0-6 3-10.9 8-13.4 4-2 12.4-2.4 17.9-.7zm-215.7-1.9c-1.4 1.4-1.8 52.3-.4 53.2 1.5.9 9.3 1.7 11.2 1.1 1.7-.5 2-1.8 2.2-10.3l.3-9.7 9.5-.5 9.5-.5.3-5.5c.4-7.2-.7-8-11.5-8H176v-7h10.8c7.1 0 11.2-.4 12-1.2.7-.7 1.2-3.3 1.2-5.8s-.5-5.1-1.2-5.8c-1.7-1.7-33.9-1.7-35.6 0zm5.8 4.8c0 3.3.3 4 2 4s2-.7 2-4v-4h24v10h-23v12h20v9h-19.9l-.3 10.2-.3 10.3-4.2.3-4.3.3v-26c0-25.4.1-26.1 2-26.1 1.7 0 2 .7 2 4z"/><path d="M169 132c0 2.3.4 3 2 3s2-.7 2-3-.4-3-2-3-2 .7-2 3zm46.6-25.8c-.8 1.3-5.6 13.3-10.6 26.7-10.3 27.7-10.3 27.4-1.1 26.9l5.6-.3 2.3-4.8 2.3-4.8 7.1.3 7.1.3 1.5 4.3c1.5 4.7 3.2 5.5 10.3 5 3.6-.2 4.5-.7 4.7-2.4.3-2-17.1-49.7-19.1-52.2-.5-.6-2.7-1.2-4.8-1.2-2.9 0-4.2.6-5.3 2.2zm11.8 9c11.3 29.5 15.5 41.3 14.7 42.1-.5.5-2.6.7-4.7.5-3.6-.3-4-.6-5.5-4.8l-1.7-4.5-9.4-.3-9.4-.3-1.5 4.8c-1.5 4.8-1.5 4.8-6.2 5.1-3.2.2-4.7-.1-4.7-.9 0-.7 4.2-12.4 9.3-26l9.2-24.9h3.2c3.1 0 3.2.3 6.7 9.2z"/><path d="M218.1 129.2c-1.3 4-2.6 7.9-2.8 8.5-.4 1 1.1 1.3 5.5 1.3h6.1l-2.6-7.8c-1.4-4.2-2.9-8-3.2-8.5-.4-.4-1.8 2.6-3 6.5zm4.4 4.5c.5 1.9.2 2.3-1.4 2.3-2.3 0-2.4-.3-1.5-3.8.7-2.6 1.8-2 2.9 1.5zM208 143c0 3.8 2.6 4.1 4 .4 1.3-3.4 1.3-3.4-1.5-3.4-2.1 0-2.5.5-2.5 3zm21.4-.8c.3 1.3.6 2.6.6 3 0 .5.9.8 2 .8 1.6 0 2-.7 2-3 0-2.6-.4-3-2.6-3s-2.5.3-2 2.2zm19.3-37.6c-.4.4-.7 12.8-.7 27.5 0 23.4.2 26.8 1.6 27.3 2.7 1 9.9.7 11.2-.6.8-.8 1.2-4.6 1.2-10.5 0-7.4.3-9.3 1.4-9.3.8 0 3.8 4.4 6.7 9.8 2.9 5.3 5.7 10 6.3 10.5.6.4 3.8.6 7.1.5 5.4-.3 6-.5 6.3-2.5.2-1.3-1.6-5.7-4.2-10.4-4.9-8.7-5.4-10.3-3.2-11.6 5.6-3.3 7.6-17 3.4-23.3-4.7-6.9-6.4-7.5-22.1-7.8-7.8-.2-14.6 0-15 .4zm5.3 5.4c0 3.3.3 4 2 4s2-.7 2-4v-4h8.3c12.6 0 18.4 3.9 19.4 13.3.7 6-1.1 11.1-5.2 14.5l-3.4 2.8 5.4 9.8c3 5.5 5.5 10.3 5.5 10.8s-2.4.8-5.2.6l-5.3-.3-5.4-10.3-5.5-10.2H259v21.1l-4.2-.3-4.3-.3-.3-25.8c-.2-25.2-.2-25.7 1.8-25.7 1.7 0 2 .7 2 4z"/><path d="M259 121.5v5.5h7.3c8.2 0 9.7-.9 9.7-5.5s-1.5-5.5-9.7-5.5H259v5.5zm14.5-2.4c.4.5.4 2.1.1 3.5-.6 2.2-1.1 2.4-6.1 2.4H262v-7h5.4c3 0 5.8.5 6.1 1.1zM254 132c0 2.3.4 3 2 3s2-.7 2-3-.4-3-2-3-2 .7-2 3zm41.7-27.3c-.4.3-.7 12.7-.7 27.4 0 29.6-.4 27.9 6.8 27.9 2 0 4.2-.4 4.9-.8.8-.5 1.3-4.2 1.5-10.2l.3-9.5 2.4 6.3c2.4 6.5 4.2 8.2 8.3 8.2 3.8 0 5.9-2.2 8.4-8.6l2.3-5.9v9.1c.1 5.6.6 9.5 1.3 10.2 1.3 1.3 8.6 1.6 10.6.4.9-.7 1.2-6.9 1-27.8l-.3-26.9-5.8-.3c-3.2-.2-6.5.2-7.2.8-.7.6-3.2 6.4-5.5 13s-4.5 12-4.9 12c-.3 0-2.3-4.9-4.4-10.9-5.2-14.8-5.5-15.1-12.6-15.1-3.2 0-6.1.3-6.4.7zm17 16.3c2.9 8 5.6 15.2 5.9 16 .3.8 3.1-5.5 6.3-14.5l5.8-16 5.1-.3 5.2-.3v52.2l-4.2-.3-4.3-.3-.5-15.2-.5-15.3-4.3 12-4.4 12h-7.5l-4.4-12-4.4-12-.5 15.3-.5 15.2h-8l-.3-25.8-.2-25.8 5.2.3 5.2.3 5.3 14.5z"/></g><path d="M165 106.4c0 .2.9.6 2 .9 1.1.3 1.8.1 1.4-.4-.5-.9-3.4-1.3-3.4-.5zm14.8.3c3.4.2 8.8.2 12 0 3.1-.2.3-.3-6.3-.3s-9.2.1-5.7.3zm37.8.1c-.3.5.8.6 2.5.4 1.6-.2 2.9-.6 2.9-.8 0-.8-4.9-.4-5.4.4zm33 .1c-.4.5.3.7 1.4.4 2.3-.6 2.6-1.3.6-1.3-.8 0-1.7.4-2 .9zm11.1-.2c1.8.2 5 .2 7 0 2.1-.2.7-.4-3.2-.4-3.8 0-5.5.2-3.8.4zm36 0c-.3.5 1.9.8 4.8.8s5.1-.3 4.8-.8c-.2-.4-2.4-.7-4.8-.7s-4.6.3-4.8.7zm34.8-.2c2.3.8 8.3 1 7.9.3-.3-.4-2.4-.8-4.7-.7-2.3 0-3.7.2-3.2.4zm-74.4 4.2c-.1 2.4-.6 3.3-2.3 3.6l-2.3.4 2.3.2c2.5.1 3.6-1.6 2.9-5.1-.3-1.8-.5-1.6-.6.9zm-87.4 3.9c1.9.5 2.3 1.3 2.6 6.7l.3 6.2V121c-.1-6.2-.2-6.5-2.6-6.7-2.1-.1-2.2-.1-.3.3zM305 140c0 9 .2 16.1.5 15.9.6-.7.8-31 .1-31.6-.3-.4-.6 6.7-.6 15.7zm-49.3-11.4c1.7.4 2.3 1.4 2.5 4.2.3 3.6.4 3.7 4.3 3.8l4 .1-3.7-.4c-3.4-.4-3.7-.7-4-4.1-.3-3.1-.7-3.7-2.8-3.9-2.1-.1-2.1 0-.3.3zm-62.5 3.4c0 1.9.2 2.7.5 1.7.2-.9.2-2.5 0-3.5-.3-.9-.5-.1-.5 1.8zm-19.8 5.3c-.3.8-.3 5.4-.1 10.3l.3 8.9.2-9.7.2-9.7 9.8-.4 9.7-.3-9.8-.2c-7.3-.1-9.9.1-10.3 1.1zm42.4 10.4c2.8.2 7.6.2 10.5 0 2.8-.2.5-.3-5.3-.3s-8.1.1-5.2.3zm152 10c1.2.2 3 .2 4 0 .9-.3-.1-.5-2.3-.4-2.2 0-3 .2-1.7.4z" fill="#9CC" stroke="#9CC"/><path d="M179.8 115.7c3.4.2 8.8.2 12 0 3.1-.2.3-.3-6.3-.3s-9.2.1-5.7.3zm81.9 0c1.8.2 5 .2 7 0 2.1-.2.7-.4-3.2-.4-3.8 0-5.5.2-3.8.4zm70.8 25.8v16l4.3.1 4.2.1-4-.4-4-.4-.3-15.7-.3-15.7.1 16zm-70.2-13.8c2 .2 5.4.2 7.5 0 2-.2.3-.4-3.8-.4s-5.8.2-3.7.4zm6.2 7.3c-1.7.7-1.4.9 1.3.9 2 .1 3.1-.3 2.7-.9-.7-1.2-1.3-1.2-4 0zm-98.7.7c.6.2 1.8.2 2.5 0 .6-.3.1-.5-1.3-.5-1.4 0-1.9.2-1.2.5zm85 0c.6.2 1.8.2 2.5 0 .6-.3.1-.5-1.3-.5-1.4 0-1.9.2-1.2.5zM209.5 146c-1.6.7-1.7.9-.3.9.9.1 2-.4 2.3-.9.7-1.1.7-1.1-2 0zm21.3.7c.6.2 1.8.2 2.5 0 .6-.3.1-.5-1.3-.5-1.4 0-1.9.2-1.2.5zm11.2 9.1c0 .7-1.8 1.3-4.2 1.4l-4.3.1 3.9.4c3.7.4 6.7-.9 5.3-2.4-.4-.3-.7-.1-.7.5zm45 .1c0 .6-2.1 1.2-4.7 1.4l-4.8.3 5.3.2c4 .2 5.2-.1 5.2-1.3 0-.8-.2-1.5-.5-1.5s-.5.4-.5.9zM169 157l-4.5.7 4.2.1c2.3.1 4.5-.3 4.8-.8.3-.6.5-.9.3-.8-.2 0-2.3.4-4.8.8zm34.5 0-5 .7 4.7.1c2.6.1 5-.3 5.3-.8.3-.6.5-.9.3-.8-.2 0-2.5.4-5.3.8zm98 0-4 .7 3.7.2c2 0 4-.4 4.3-.9.3-.6.5-.9.3-.9-.2.1-2.1.5-4.3.9zm-48.7.7c1.2.2 3.2.2 4.5 0 1.2-.2.2-.4-2.3-.4s-3.5.2-2.2.4z" fill="#6FC" stroke="#6FC"/><path d="M369.8 106.7c.6.2 1.8.2 2.5 0 .6-.3.1-.5-1.3-.5-1.4 0-1.9.2-1.2.5zm-200 22c.6.2 1.8.2 2.5 0 .6-.3.1-.5-1.3-.5-1.4 0-1.9.2-1.2.5zm9 0c2.9.2 7.4.2 10 0 2.6-.2.2-.3-5.3-.3s-7.6.1-4.7.3zm30.5 11c.9.2 2.3.2 3 0 .6-.3-.1-.5-1.8-.5-1.6 0-2.2.2-1.2.5zm8.5 0c1.7.2 4.7.2 6.5 0 1.7-.2.3-.4-3.3-.4-3.6 0-5 .2-3.2.4zm11.5 0c.9.2 2.5.2 3.5 0 .9-.3.1-.5-1.8-.5-1.9 0-2.7.2-1.7.5zm88 11c.9.2 2.5.2 3.5 0 .9-.3.1-.5-1.8-.5-1.9 0-2.7.2-1.7.5z" fill="#9C9" stroke="#9C9"/><g fill="#FC6" stroke="#FC6"><path d="M165 131.5V156h8v-9.4c0-9-.1-9.5-2.2-9.8-2-.3-2.3-.9-2.3-4.3s.3-4 2.3-4.3c2-.3 2.2-.9 2.2-6.8 0-6.2-.1-6.4-2.5-6.4-2.2 0-2.5-.4-2.5-4 0-2.9-.4-4-1.5-4-1.3 0-1.5 3.4-1.5 24.5zm9-21v3.5h23v-7h-23v3.5zm42.2 1.7c-1.1 2.9-5.2 13.8-9.1 24.2-3.9 10.4-7.1 19.1-7.1 19.2 0 .2 1.8.4 3.9.4 3.6 0 4-.3 5.4-3.8 1.3-3.1 1.3-3.7.1-4-.9-.2-1.4-1.8-1.4-4.8 0-4.2.1-4.4 2.9-4.4 2.7 0 3-.5 6.2-9.5 1.8-5.2 3.6-9.2 3.9-8.9.3.3 1.9 4.5 3.6 9.2 3 8.2 3.3 8.7 6.3 9 3 .3 3.1.5 3.1 4.8 0 3.2-.4 4.4-1.5 4.4-1.8 0-1.9.2-.1 4.5 1.4 3.2 1.9 3.5 5.5 3.5 4 0 4 0 3-2.8-.6-1.5-4.4-11.7-8.6-22.7-9.1-24.1-8.8-23.5-11.8-23.5-1.9 0-2.7.9-4.3 5.2zm34.8 19.3V156h7v-9.5c0-8.8-.1-9.5-2-9.5-1.7 0-2-.7-2-4.5s.3-4.5 2-4.5c1.8 0 2-.7 2-6.5s-.2-6.5-2-6.5c-1.7 0-2-.7-2-4 0-2.9-.4-4-1.5-4-1.3 0-1.5 3.4-1.5 24.5zm8-21.3v3.6l7.6.4c6 .3 7.9.7 9 2.3 2 2.8 1.7 7.8-.6 10.3-1.8 1.9-3.2 2.2-9 2.2h-7v3.5c0 3.3.2 3.5 3.5 3.5 1.9 0 3.5-.4 3.5-.9 0-1.4 8-2.5 9.2-1.3 1.7 1.7 6.8-1.5 8.4-5.3 3-7.3.9-15.6-4.7-18.9-2.1-1.2-6-2-11.5-2.4l-8.4-.5v3.5zm39 21.3V156h7l.2-16.8.3-16.7 5.1 13.5 5.1 13.5h6.8l5-13.5 5-13.5.3 16.7.2 16.8h7v-49h-4c-4.7 0-4.5-.5-11.9 20l-4.9 13.5-1.5-3.5c-.8-1.9-3.6-9.5-6.2-16.8l-4.8-13.2H298v24.5zm65.9-23.5c-7 2.1-10.2 6.6-10.1 14.2.1 7.5 4 10.7 15.8 13.2 10 2.1 12.6 5.9 8 11.3-2.2 2.5-3.1 2.8-8.8 2.8-4.7 0-7.3-.6-10-2.2l-3.7-2.2-1.5 2.4c-2.3 3.4-2 4.1 1.9 6 6.8 3.2 14.4 4 20.7 2.1 7.8-2.2 10.8-5.9 10.8-13.3 0-8.4-3.7-11.3-19.3-14.7-3.7-.8-6.7-4-6.7-7 0-6 10.2-8.6 18-4.6l3.9 2 1.6-2.9c.8-1.7 1.5-3.2 1.5-3.5 0-.2-2.5-1.4-5.5-2.5-5.7-2.1-11.9-2.6-16.6-1.1zM174 132.5v3.5h19v-7h-19v3.5zm96.7 4.2c-1.6.3-2.7.8-2.5 1.3.2.4 2.3 4.7 4.8 9.4l4.5 8.6h9.3l-5.5-10c-3-5.5-6-9.9-6.6-9.9-.7.1-2.5.4-4 .6z"/><path d="M213.1 143.1c-.6 1.8-1.1 3.4-1.1 3.5 0 .2 4 .4 8.9.4h8.9l-1.1-3.5-1-3.5h-6.8c-6.6 0-6.7 0-7.8 3.1z"/></g><path d="M168.2 111c0 1.9.2 2.7.5 1.7.2-.9.2-2.5 0-3.5-.3-.9-.5-.1-.5 1.8zm172 20.7-.2 24.2-3.7.4-3.8.4 3.8.1c2.3.1 4-.3 4.3-1.1.2-.7.3-11.8.1-24.7l-.2-23.5-.3 24.2zm-161.4-17c3.4.2 9 .2 12.5 0 3.4-.2.6-.3-6.3-.3-6.9 0-9.7.1-6.2.3zm81.9 0c1.8.2 5 .2 7 0 2.1-.2.7-.4-3.2-.4-3.8 0-5.5.2-3.8.4zm1.1 14c2.3.2 5.9.2 8 0 2-.2.1-.4-4.3-.4-4.4 0-6.1.2-3.7.4zm-93.4 4.3c.1 3.1.4 3.5 2.9 3.6 2.4.1 2.4.1.3-.3-1.9-.3-2.6-1.2-2.9-3.6-.4-3.1-.4-3.1-.3.3zm86.9 3.7c.9.2 2.3.2 3 0 .6-.3-.1-.5-1.8-.5-1.6 0-2.2.2-1.2.5zm11.7.2c0 .4 1.1.6 2.5.3 1.4-.2 2.5-.6 2.5-.8 0-.2-1.1-.4-2.5-.4s-2.5.4-2.5.9zm120.2 5.6c0 1.6.2 2.2.5 1.2.2-.9.2-2.3 0-3-.3-.6-.5.1-.5 1.8zm-220.4 14.2c1.2.2 3.2.2 4.5 0 1.2-.2.2-.4-2.3-.4s-3.5.2-2.2.4zm35 0c1.2.2 3.2.2 4.5 0 1.2-.2.2-.4-2.3-.4s-3.5.2-2.2.4zm34 0c1.2.2 3.2.2 4.5 0 1.2-.2.2-.4-2.3-.4s-3.5.2-2.2.4zm17 0c1.2.2 3.2.2 4.5 0 1.2-.2.2-.4-2.3-.4s-3.5.2-2.2.4zm27.5 0c1.5.2 3.7.2 5 0 1.2-.2 0-.4-2.8-.4-2.7 0-3.8.2-2.2.4zm19.5 0c1.2.2 3 .2 4 0 .9-.3-.1-.5-2.3-.4-2.2 0-3 .2-1.7.4z" fill="#CC9" stroke="#CC9"/><path d="M343.4 131.5c0 13.7.2 19.5.3 12.8.2-6.7.2-17.9 0-25-.1-7-.3-1.6-.3 12.2z" fill="#3EDFCF" stroke="#3EDFCF" fill-opacity=".5" stroke-opacity=".5"/><path d="M149.8 108.7c1.2.2 3 .2 4 0 .9-.3-.1-.5-2.3-.4-2.2 0-3 .2-1.7.4z" fill="#BBB" stroke="#BBB" fill-opacity=".22" stroke-opacity=".22"/><path d="M247.4 132c0 13.5.2 19 .3 12.2.2-6.7.2-17.7 0-24.5-.1-6.7-.3-1.2-.3 12.3zm47 0c0 13.5.2 19 .3 12.2.2-6.7.2-17.7 0-24.5-.1-6.7-.3-1.2-.3 12.3z" fill="#3EDFCF" stroke="#3EDFCF" fill-opacity=".37" stroke-opacity=".37"/><path d="M176.2 122c0 1.9.2 2.7.5 1.7.2-.9.2-2.5 0-3.5-.3-.9-.5-.1-.5 1.8zm20.1 10.5c0 2.2.2 3 .4 1.7.2-1.2.2-3 0-4-.3-.9-.5.1-.4 2.3zm-20 15.5c0 4.7.2 6.6.4 4.2.2-2.3.2-6.1 0-8.5-.2-2.3-.4-.4-.4 4.3zm132 1c0 4.1.2 5.8.4 3.7.2-2 .2-5.4 0-7.5-.2-2-.4-.3-.4 3.8z" fill="#41DFCE" stroke="#41DFCE" fill-opacity=".25" stroke-opacity=".25"/></svg>